<svg width="24" height="24" viewBox="0 0 24 24" fill="none" xmlns="http://www.w3.org/2000/svg">
<path d="M11.9875 14.405C12.6382 14.405 13.1887 13.8789 13.1887 13.2025C13.1887 12.5511 12.6632 12 11.9875 12C11.3368 12 10.7862 12.5261 10.7862 13.2025C10.7862 13.8539 11.3118 14.405 11.9875 14.405ZM17.9687 14.405C18.6194 14.405 19.17 13.8789 19.17 13.2025C19.17 12.5511 18.6444 12 17.9687 12C17.293 12 16.7675 12.5261 16.7675 13.2025C16.7925 13.8539 17.318 14.405 17.9687 14.405ZM11.9875 19.19C12.6382 19.19 13.1887 18.6639 13.1887 17.9875C13.1887 17.3111 12.6632 16.785 11.9875 16.785C11.3368 16.785 10.7862 17.3111 10.7862 17.9875C10.7862 18.6639 11.3118 19.19 11.9875 19.19ZM17.9687 19.19C18.6194 19.19 19.17 18.6639 19.17 17.9875C19.17 17.3111 18.6444 16.785 17.9687 16.785C17.293 16.785 16.7675 17.3111 16.7675 17.9875C16.7675 18.6639 17.318 19.19 17.9687 19.19ZM5.98123 14.405C6.63191 14.405 7.18248 13.8789 7.18248 13.2025C7.18248 12.5511 6.65693 12 5.98123 12C5.30553 12 4.77998 12.5261 4.77998 13.2025C4.80501 13.8539 5.33055 14.405 5.98123 14.405ZM20.3712 2.40501H19.17V1.20251C19.17 0.551148 18.6444 0 17.9687 0C17.293 0 16.7675 0.526096 16.7675 1.20251V2.40501H7.18248V1.20251C7.18248 0.551148 6.65693 0 5.98123 0C5.30553 0 4.77998 0.526096 4.77998 1.20251V2.40501H3.57873C1.60167 2.40501 0 4.00835 0 5.98747V20.3925C0 22.3716 1.60167 24 3.60375 24H20.3962C22.3733 24 24 22.3967 24 20.3925V5.98747C23.975 4.00835 22.3733 2.40501 20.3712 2.40501ZM21.5725 20.3925C21.5725 21.0438 21.0469 21.595 20.3712 21.595H3.60375C2.95308 21.595 2.4025 21.0689 2.4025 20.3925V9.59499H21.5725V20.3925ZM21.5725 7.18998H2.4025V5.98747C2.4025 5.33612 2.92805 4.78497 3.60375 4.78497H20.3962C21.0469 4.78497 21.5975 5.31106 21.5975 5.98747V7.18998H21.5725ZM5.98123 19.19C6.63191 19.19 7.18248 18.6639 7.18248 17.9875C7.18248 17.3111 6.65693 16.785 5.98123 16.785C5.30553 16.785 4.77998 17.3111 4.77998 17.9875C4.77998 18.6639 5.33055 19.19 5.98123 19.19Z" fill="#43CB80"/>
</svg>
