<svg width="18" height="18" viewBox="0 0 18 18" fill="none" xmlns="http://www.w3.org/2000/svg">
<path d="M4.95 12.6C5.67 12.6 6.3 11.97 6.3 11.25V11.16L8.82 8.64H9H9.18L10.62 10.08V10.17C10.62 10.89 11.25 11.52 11.97 11.52C12.69 11.52 13.32 10.89 13.32 10.17V10.08L16.56 6.75C17.37 6.75 18 6.12 18 5.4C18 4.68 17.37 4.05 16.65 4.05C15.93 4.05 15.3 4.68 15.3 5.4V5.49L12.06 8.73H11.88L10.35 7.2C10.35 6.48 9.72 5.85 9 5.85C8.28 5.85 7.65 6.48 7.65 7.2L4.95 9.9C4.23 9.9 3.6 10.53 3.6 11.25C3.6 11.97 4.23 12.6 4.95 12.6ZM17.1 16.2H1.8V0.9C1.8 0.36 1.44 0 0.9 0C0.36 0 0 0.36 0 0.9V17.1C0 17.64 0.36 18 0.9 18H17.1C17.64 18 18 17.64 18 17.1C18 16.56 17.64 16.2 17.1 16.2Z" fill="#43CB80"/>
</svg>
