<svg width="25" height="18" viewBox="0 0 25 18" fill="none" xmlns="http://www.w3.org/2000/svg">
<path d="M21.25 0H3.75C1.625 0 0 1.4625 0 3.375V14.625C0 16.5375 1.625 18 3.75 18H21.25C23.375 18 25 16.5375 25 14.625V3.375C25 1.4625 23.375 0 21.25 0ZM20.375 2.25L12.5 7.65L4.625 2.25H20.375ZM21.25 15.75H3.75C3 15.75 2.5 15.3 2.5 14.625V3.7125L11.75 10.0125C12 10.125 12.25 10.2375 12.5 10.2375C12.75 10.2375 13 10.125 13.25 10.0125L22.5 3.7125V14.625C22.5 15.3 22 15.75 21.25 15.75Z" fill="#3649AB"/>
</svg>
