<svg width="18" height="18" viewBox="0 0 18 18" fill="none" xmlns="http://www.w3.org/2000/svg">
<path d="M17.7 6.3L11.7 0.3C11.6 0.2 11.5 0.1 11.4 0.1C11.3 0 11.1 0 11 0H3C1.3 0 0 1.3 0 3V15C0 16.7 1.3 18 3 18H15C16.7 18 18 16.7 18 15V7C18 6.7 17.9 6.5 17.7 6.3ZM6 2H10V4H6V2ZM12 16H6V13C6 12.4 6.4 12 7 12H11C11.6 12 12 12.4 12 13V16ZM16 15C16 15.6 15.6 16 15 16H14V13C14 11.3 12.7 10 11 10H7C5.3 10 4 11.3 4 13V16H3C2.4 16 2 15.6 2 15V3C2 2.4 2.4 2 3 2H4V5C4 5.6 4.4 6 5 6H11C11.6 6 12 5.6 12 5V3.4L16 7.4V15Z" fill="white"/>
</svg>
