<svg width="22" height="17" viewBox="0 0 22 17" fill="none" xmlns="http://www.w3.org/2000/svg">
<path d="M11.3 8.7C12.4 7.8 13 6.4 13 5C13 2.2 10.8 0 8 0C5.2 0 3 2.2 3 5C3 6.4 3.6 7.8 4.7 8.7C1.8 10 0 12.9 0 16C0 16.6 0.4 17 1 17C1.6 17 2 16.6 2 16C2 12.7 4.7 10 8 10C11.3 10 14 12.7 14 16C14 16.6 14.4 17 15 17C15.6 17 16 16.6 16 16C16 12.9 14.2 10 11.3 8.7ZM8 8C6.3 8 5 6.7 5 5C5 3.3 6.3 2 8 2C9.7 2 11 3.3 11 5C11 6.7 9.7 8 8 8ZM17.7 8.3C19.5 6.2 19.3 3.1 17.3 1.2C16.4 0.4 15.2 0 14 0C13.4 0 13 0.4 13 1C13 1.6 13.4 2 14 2C15.7 2 17 3.3 17 5C17 6.1 16.4 7.1 15.5 7.6C15.2 7.8 15 8.1 15 8.4C15 8.7 15.2 9.1 15.5 9.3L15.9 9.6H16C18.5 10.8 20 13.3 20 16C20 16.6 20.4 17 21 17C21.6 17 22 16.6 22 16C22 12.9 20.4 10 17.7 8.3Z" fill="#43CB80"/>
</svg>
