<svg width="18" height="18" viewBox="0 0 18 18" fill="none" xmlns="http://www.w3.org/2000/svg">
<path d="M14.3309 15.6535C13.8623 15.6535 13.3858 15.6374 12.9172 15.6615C12.7961 15.6696 12.6345 15.7581 12.5861 15.8627C11.7783 17.5282 10.3405 18.0592 8.6199 17.9949C7.34363 17.9466 6.16428 17.5041 5.51806 16.3454C5.17072 15.7178 4.78299 15.6052 4.161 15.6454C3.59556 15.6856 3.03012 15.6615 2.46468 15.6454C1.42266 15.6213 0.542188 15.0017 0.186768 14.0684C-0.192885 13.0868 0.000980503 11.9603 0.81683 11.3086C1.48728 10.7775 1.65691 10.1821 1.68115 9.36144C1.77808 6.37635 3.02205 4.0269 5.77655 2.60274C5.91387 2.53033 6.0108 2.32918 6.06735 2.16826C6.45508 1.02572 7.23861 0.30157 8.40988 0.0682341C9.54884 -0.157056 10.5586 0.172833 11.3017 1.09813C11.5763 1.44411 11.7137 1.90274 11.9237 2.29699C11.9964 2.42573 12.0772 2.58665 12.1983 2.65102C14.969 4.06713 16.1806 6.43267 16.2695 9.41776C16.2937 10.2304 16.4714 10.8097 17.1257 11.3327C17.982 12.0166 18.2001 13.1029 17.8204 14.0684C17.4408 15.05 16.5361 15.6454 15.4213 15.6535C15.0578 15.6535 14.6943 15.6535 14.3309 15.6535ZM9.03187 13.8994C9.71847 13.8994 10.4051 13.8994 11.0917 13.8994C12.5214 13.8994 13.9431 13.8994 15.3729 13.8994C15.7445 13.8994 16.0433 13.7787 16.1726 13.4167C16.3018 13.0707 16.1645 12.7891 15.8979 12.5557C15.6152 12.3063 15.3567 12.0247 15.0498 11.8155C14.6701 11.558 14.5247 11.2281 14.5328 10.7936C14.5328 10.327 14.5489 9.85225 14.5247 9.38558C14.3955 6.85911 13.3454 4.9361 10.8655 3.98667C10.4535 3.82575 10.2597 3.53609 10.2435 3.09355C10.2274 2.30504 9.73463 1.76595 9.03995 1.74182C8.32911 1.71768 7.76367 2.26481 7.70712 3.06942C7.67481 3.55218 7.44056 3.85793 6.98013 4.0269C5.34035 4.61426 4.34679 5.81312 3.77327 7.40624C3.39362 8.47637 3.36939 9.58673 3.4017 10.6971C3.41785 11.1396 3.26438 11.4695 2.93319 11.7511C2.62624 12.0086 2.32736 12.2822 2.03657 12.5557C1.68115 12.9017 1.67307 13.4569 2.0608 13.7063C2.25466 13.835 2.53738 13.8833 2.77972 13.8833C4.86377 13.9075 6.94782 13.8994 9.03187 13.8994ZM7.28708 15.6696C7.87675 16.4661 10.1224 16.4017 10.4778 15.6696C9.4196 15.6696 8.37757 15.6696 7.28708 15.6696Z" fill="#43CB80"/>
</svg>
