<svg width="20" height="18" viewBox="0 0 20 18" fill="none" xmlns="http://www.w3.org/2000/svg">
    <path
        d="M17 3H14V2C14 0.9 13.1 0 12 0H8C6.9 0 6 0.9 6 2V3H3C1.3 3 0 4.3 0 6V15C0 16.7 1.3 18 3 18H17C18.7 18 20 16.7 20 15V6C20 4.3 18.7 3 17 3ZM8 2H12V3H8V2ZM18 15C18 15.6 17.6 16 17 16H3C2.4 16 2 15.6 2 15V10H6V11C6 11.6 6.4 12 7 12C7.6 12 8 11.6 8 11V10H12V11C12 11.6 12.4 12 13 12C13.6 12 14 11.6 14 11V10H18V15ZM18 8H2V6C2 5.4 2.4 5 3 5H17C17.6 5 18 5.4 18 6V8Z"
        fill="#43CB80" />
</svg>