<svg viewBox="0 0 18 18" fill="none" xmlns="http://www.w3.org/2000/svg">
    <path d="M9 0C4.05 0 0 4.05 0 9C0 13.95 4.05 18 9 18C13.95 18 18 13.95 18 9C18 4.05 13.95 0 9 0ZM9 16.2C5.04 16.2 1.8 12.96 1.8 9C1.8 5.04 5.04 1.8 9 1.8C12.96 1.8 16.2 5.04 16.2 9C16.2 12.96 12.96 16.2 9 16.2Z" fill="#43CB80" />
    <path d="M11.6999 8.10002H9.8999V6.30002C9.8999 5.76002 9.5399 5.40002 8.9999 5.40002C8.4599 5.40002 8.0999 5.76002 8.0999 6.30002V8.10002H6.2999C5.7599 8.10002 5.3999 8.46002 5.3999 9.00002C5.3999 9.54002 5.7599 9.90002 6.2999 9.90002H8.0999V11.7C8.0999 12.24 8.4599 12.6 8.9999 12.6C9.5399 12.6 9.8999 12.24 9.8999 11.7V9.90002H11.6999C12.2399 9.90002 12.5999 9.54002 12.5999 9.00002C12.5999 8.46002 12.2399 8.10002 11.6999 8.10002Z" fill="#43CB80" />
</svg>