<svg viewBox="0 0 20 20" fill="none" xmlns="http://www.w3.org/2000/svg">
    <path d="M10 0C4.5 0 0 4.5 0 10C0 15.5 4.5 20 10 20C15.5 20 20 15.5 20 10C20 4.5 15.5 0 10 0ZM10 18C5.6 18 2 14.4 2 10C2 5.6 5.6 2 10 2C14.4 2 18 5.6 18 10C18 14.4 14.4 18 10 18Z" fill="#3649AB" />
    <path d="M12.7999 11.4L11.3999 10L12.7999 8.60002C13.1999 8.20002 13.1999 7.60002 12.7999 7.20002C12.3999 6.80002 11.7999 6.80002 11.3999 7.20002L9.9999 8.60002L8.5999 7.20002C8.1999 6.80002 7.5999 6.80002 7.1999 7.20002C6.7999 7.60002 6.7999 8.20002 7.1999 8.60002L8.5999 10L7.1999 11.4C6.7999 11.8 6.7999 12.4 7.1999 12.8C7.5999 13.2 8.1999 13.2 8.5999 12.8L9.9999 11.4L11.3999 12.8C11.7999 13.2 12.3999 13.2 12.7999 12.8C13.1999 12.4 13.1999 11.8 12.7999 11.4Z" fill="#3649AB" />
</svg>