<svg width="21" height="21" viewBox="0 0 21 21" fill="none" xmlns="http://www.w3.org/2000/svg">
    <circle cx="10.5" cy="10.5" r="9.5" fill="#3649AB" stroke="white" stroke-width="2" />
    <path d="M14 8.50495C14 6.56436 12.3583 5 10.3218 5C9.01265 5 7.78659 5.67327 7.1424 6.74257C6.85147 7.21782 7.01771 7.83168 7.53723 8.10891C8.03596 8.38614 8.68016 8.22772 8.97109 7.75248C9.26202 7.29703 9.78153 7 10.3426 7C11.2154 7 11.9219 7.67327 11.9219 8.50495C11.9219 9.33663 11.2154 10.0099 10.3426 10.0099C10.2803 10.0099 10.2179 10.0297 10.1348 10.0495C10.0725 10.0495 9.98934 10.0693 9.927 10.0891C9.86466 10.1287 9.8231 10.1485 9.76075 10.1881C9.69841 10.2277 9.63607 10.2475 9.59451 10.3069C9.55295 10.3663 9.51139 10.4257 9.46982 10.4851C9.42826 10.5248 9.40748 10.5842 9.36592 10.6238C9.34514 10.6832 9.32436 10.7624 9.32436 10.8416C9.2828 10.8812 9.2828 10.9406 9.26202 11V12.0099V12.0297V12.5248C9.26202 13.0792 9.73997 13.5149 10.3218 13.5149C10.9037 13.5149 11.3609 13.0594 11.3609 12.505V11.8515C12.9194 11.396 14 10.0495 14 8.50495ZM9.57373 15.297C9.15812 15.6931 9.15812 16.3267 9.57373 16.703C9.76075 16.901 10.0309 17 10.3218 17C10.592 17 10.8621 16.901 11.0699 16.703C11.4855 16.3069 11.4855 15.6733 11.0699 15.2772C10.6543 14.9208 10.0101 14.9208 9.57373 15.297Z" fill="white" />
</svg>