<svg viewBox="0 0 24 23" fill="none" xmlns="http://www.w3.org/2000/svg">
    <path d="M24 12.0421C23.8936 12.3051 23.9186 12.5868 23.8685 12.856C23.0546 17.1007 20.6318 20.0119 16.5624 21.4393C12.0422 23.0232 6.97736 21.3078 4.21643 17.3636C3.85958 16.8503 3.94722 16.2305 4.42929 15.8986C4.89884 15.5731 5.49986 15.7046 5.85671 16.2054C7.20901 18.0961 9.02458 19.3107 11.2972 19.799C15.5669 20.7131 19.9055 18.309 21.4269 14.2271C23.2675 9.28117 20.494 3.88452 15.4042 2.50092C10.6649 1.21124 5.66263 4.12868 4.48564 8.86797C4.47938 8.88049 4.48564 8.89928 4.48564 8.93684C4.98649 8.59877 5.48108 8.26069 5.97566 7.93514C6.43269 7.63463 7.02119 7.7348 7.33422 8.15426C7.68481 8.61755 7.60343 9.24361 7.12136 9.58168C6.01323 10.3455 4.89258 11.0968 3.77193 11.8418C3.30238 12.1548 2.70762 12.0358 2.38833 11.5663C1.62453 10.4394 0.87952 9.29996 0.134507 8.15426C-0.109657 7.77237 -0.0282692 7.09622 0.435017 6.80823C0.885781 6.52024 1.47428 6.60789 1.79357 7.03987C2.06278 7.40925 2.30694 7.80367 2.57615 8.20435C2.68884 7.86001 2.77649 7.5282 2.9017 7.20891C4.34164 3.50262 6.98988 1.13611 10.8652 0.272144C14.1395 -0.460348 17.1446 0.303447 19.7929 2.35067C21.9277 3.99721 23.2362 6.18843 23.7934 8.82415C23.8748 9.19979 23.9311 9.57542 23.9562 9.95732C23.9562 10.0011 23.9374 10.0512 24 10.0763C24 10.1827 24 10.2954 24 10.4018C23.9624 10.4957 23.9624 10.5896 24 10.6836C24 11.1343 24 11.5913 24 12.0421Z" fill="#3649AB" />
    <path d="M24.0003 10.6838C23.9314 10.5899 23.9252 10.496 24.0003 10.4021C24.0003 10.496 24.0003 10.5899 24.0003 10.6838Z" fill="#05336E" />
    <path d="M12.0107 8.4798C12.0107 7.6534 12.0107 6.827 12.0107 6.0006C12.0107 5.4121 12.4302 4.97386 12.9874 4.9676C13.5759 4.96134 14.0141 5.39332 14.0204 6.0006C14.0267 7.46558 14.0267 8.93683 14.0204 10.4018C14.0204 10.5458 14.058 10.646 14.1644 10.7461C15.0096 11.5913 15.8485 12.4365 16.6874 13.288C17.182 13.7951 17.1194 14.5276 16.5622 14.8782C16.1678 15.1286 15.6669 15.0973 15.3351 14.7592C14.3147 13.745 13.3067 12.7245 12.2987 11.6978C12.0984 11.4974 12.017 11.2407 12.017 10.9527C12.0107 10.1389 12.0107 9.3062 12.0107 8.4798Z" fill="#3649AB" />
</svg>