<svg width="21" height="19" viewBox="0 0 21 19" fill="none" xmlns="http://www.w3.org/2000/svg">
<path d="M14.9125 6.91053C15.1386 6.91053 15.3647 6.99532 15.5343 7.17197C15.8735 7.51113 15.8664 8.06228 15.5272 8.40144L10.4539 13.3829L5.46531 8.39438C5.12615 8.05521 5.12615 7.50407 5.46531 7.1649C5.80448 6.82573 6.35562 6.82573 6.69478 7.1649L10.468 10.9381L14.3119 7.1649C14.4744 6.99532 14.6934 6.91053 14.9125 6.91053Z" fill="#43CB80"/>
<path d="M10.4964 5.34058e-05C10.9768 5.34058e-05 11.3655 0.38868 11.3655 0.869164L11.3655 12.1606C11.3655 12.641 10.9768 13.0297 10.4964 13.0297C10.0159 13.0297 9.62726 12.641 9.62726 12.1606L9.62726 0.869164C9.62726 0.38868 10.0159 5.34058e-05 10.4964 5.34058e-05Z" fill="#43CB80"/>
<path d="M18.7177 18.746H2.15511C0.968032 18.746 0 17.7779 0 16.5909V10.5777C0 10.0972 0.388624 9.70862 0.869109 9.70862C1.34959 9.70862 1.73822 10.0972 1.73822 10.5777V16.5909C1.73822 16.817 1.92193 17.0077 2.15511 17.0077H18.7177C19.0145 17.0077 19.2618 16.7604 19.2618 16.4637V10.5777C19.2618 10.0972 19.6504 9.70862 20.1309 9.70862C20.6114 9.70862 21 10.0972 21 10.5777V16.4637C21 17.7214 19.9754 18.746 18.7177 18.746Z" fill="#43CB80"/>
</svg>
