<svg viewBox="0 0 14 14" fill="none" xmlns="http://www.w3.org/2000/svg">
    <path d="M7 8.4C6.51 8.4 6.09 8.82 6.09 9.31C6.09 9.8 6.51 10.22 7 10.22C7.49 10.22 7.91 9.8 7.91 9.31C7.91 8.82 7.49 8.4 7 8.4ZM7 7.35C7.42 7.35 7.7 7.07 7.7 6.65V4.55C7.7 4.13 7.42 3.85 7 3.85C6.58 3.85 6.3 4.13 6.3 4.55V6.65C6.3 7.07 6.58 7.35 7 7.35ZM7 0C3.15 0 0 3.15 0 7C0 10.85 3.15 14 7 14C10.85 14 14 10.85 14 7C14 3.15 10.85 0 7 0ZM7 12.6C3.92 12.6 1.4 10.08 1.4 7C1.4 3.92 3.92 1.4 7 1.4C10.08 1.4 12.6 3.92 12.6 7C12.6 10.08 10.08 12.6 7 12.6Z" fill="#43CB80" />
</svg>