<svg viewBox="0 0 19 15" fill="none" xmlns="http://www.w3.org/2000/svg">
    <path d="M18.9405 6.82255C17.3539 3.41127 13.8633 0 9.5 0C5.13674 0 1.64614 3.41127 0.059499 6.82255C-0.019833 6.98121 -0.019833 7.29854 0.059499 7.4572C1.64614 10.8685 5.13674 14.2798 9.5 14.2798C13.8633 14.2798 17.3539 10.8685 18.9405 7.4572C19.0198 7.29854 19.0198 6.98121 18.9405 6.82255ZM9.5 12.6931C6.0094 12.6931 3.07411 9.83716 1.64614 7.13988C3.07411 4.44259 6.0094 1.58664 9.5 1.58664C12.9906 1.58664 15.9259 4.44259 17.3539 7.13988C15.9259 9.83716 12.9906 12.6931 9.5 12.6931Z" fill="#8790B0" />
    <path d="M9.4998 3.17334C7.27851 3.17334 5.5332 4.91864 5.5332 7.13994C5.5332 9.36123 7.27851 11.1065 9.4998 11.1065C11.7211 11.1065 13.4664 9.36123 13.4664 7.13994C13.4664 4.91864 11.7211 3.17334 9.4998 3.17334ZM9.4998 9.5199C8.15116 9.5199 7.11984 8.48858 7.11984 7.13994C7.11984 5.79129 8.15116 4.75998 9.4998 4.75998C10.8484 4.75998 11.8798 5.79129 11.8798 7.13994C11.8798 8.48858 10.8484 9.5199 9.4998 9.5199Z" fill="#8790B0" />
</svg>