<svg viewBox="0 0 19 22" fill="none" xmlns="http://www.w3.org/2000/svg">
    <path d="M18.3366 8.50636C18.3366 8.0623 18.2065 7.72543 17.8926 7.41918C15.5421 5.08404 13.1993 2.74124 10.8642 0.390785C10.5962 0.122818 10.3053 -0.0073372 9.92244 0.000319009C8.15386 0.00797521 6.39293 0.000319009 4.62435 0.00797521C2.01358 0.00797521 0 2.02921 0 4.64764C0 6.7684 0 8.88917 0 11.0023C0 13.1307 0 15.2591 0 17.3876C0 17.6326 0.0153124 17.8776 0.0535934 18.1302C0.359842 20.274 2.30452 21.9966 4.45591 21.9966C7.59496 22.0043 10.734 21.9966 13.8807 21.9966C14.1487 21.9966 14.4166 21.9583 14.6769 21.9047C16.9049 21.4377 18.3672 19.4394 18.3443 17.3187C18.306 14.3863 18.329 11.4463 18.3366 8.50636ZM11.0096 3.23889C12.3648 4.59404 13.7352 5.9645 15.1057 7.33496C14.4779 7.312 13.8118 7.40387 13.1687 7.26606C11.9743 7.00575 11.1168 6.0181 11.0173 4.77013C10.979 4.24951 11.0096 3.72889 11.0096 3.23889ZM16.4991 17.3033C16.4991 18.6049 15.7718 19.6385 14.5851 20.029C14.2865 20.1285 13.9726 20.1668 13.6587 20.1668C10.6574 20.1668 7.66386 20.1744 4.66263 20.1668C3.03186 20.1668 1.83749 18.9647 1.82983 17.3263C1.82218 15.2132 1.82983 13.1077 1.82983 10.9946C1.82983 8.88152 1.82218 6.77606 1.82983 4.66295C1.82983 3.3078 2.6567 2.25124 3.94295 1.92203C4.18029 1.86078 4.43294 1.83781 4.67794 1.83781C6.09434 1.83781 7.50308 1.84546 8.91948 1.83015C9.11854 1.83015 9.17213 1.86843 9.17213 2.07515C9.15682 2.95561 9.16448 3.82842 9.16448 4.70889C9.17979 6.86794 10.8948 8.82027 13.0385 9.1112C14.0721 9.24901 15.1133 9.15714 16.1546 9.15714C16.4379 9.15714 16.5068 9.22605 16.5068 9.50933C16.4915 12.1124 16.4991 14.7079 16.4991 17.3033Z" fill="#43CB80" />
    <path d="M9.13383 13.7511C7.93946 13.7511 6.74509 13.7511 5.55838 13.7511C4.98417 13.7511 4.57839 13.3683 4.58604 12.8247C4.58604 12.2964 4.98417 11.9136 5.55073 11.9136C7.96243 11.9136 10.3818 11.9136 12.7935 11.9136C13.3524 11.9136 13.7505 12.2964 13.7505 12.8247C13.7505 13.3683 13.3524 13.7434 12.7782 13.7511C11.5608 13.7587 10.3512 13.7511 9.13383 13.7511Z" fill="#43CB80" />
    <path d="M9.14904 17.4182C7.95467 17.4182 6.7603 17.4182 5.57359 17.4182C4.99172 17.4182 4.58594 17.0431 4.58594 16.5071C4.58594 15.9635 4.98406 15.5884 5.55828 15.5884C7.96232 15.5884 10.3664 15.5884 12.7704 15.5884C13.3446 15.5884 13.7504 15.9712 13.7428 16.5148C13.7428 17.0431 13.337 17.4182 12.7781 17.4259C11.5761 17.4182 10.3664 17.4182 9.14904 17.4182Z" fill="#43CB80" />
    <path d="M6.39265 10.0835C6.0864 10.0835 5.78015 10.0911 5.4739 10.0835C4.96859 10.0758 4.57812 9.67769 4.57812 9.16472C4.57812 8.65941 4.96094 8.25363 5.4739 8.24598C6.10171 8.23832 6.72952 8.23832 7.36498 8.24598C7.85498 8.25363 8.24545 8.65176 8.24545 9.14175C8.2531 9.65472 7.87029 10.0605 7.36498 10.0758C7.04342 10.0911 6.72186 10.0835 6.39265 10.0835Z" fill="#43CB80" />
</svg>