<svg viewBox="0 0 19 19" fill="none" xmlns="http://www.w3.org/2000/svg">
    <path d="M5.95255 18.0026C5.50249 18.0026 5.05242 17.8226 4.78239 17.5525L2.89211 16.2023C1.99198 15.4822 1.81196 14.222 2.44205 13.3219C2.8021 12.8719 2.89211 12.2418 2.62207 11.6117L2.53206 11.4316C2.35204 10.8916 1.99198 10.5315 1.54192 10.3515H1.45191C0.37175 9.99144 -0.258341 8.82127 0.101711 7.74112L0.821815 5.40078C1.00184 4.8607 1.36189 4.41064 1.81196 4.1406C2.26202 3.87056 2.8021 3.87056 3.34218 4.05058C3.88226 4.23061 4.51235 4.1406 4.96241 3.78054L5.05242 3.69053C5.50249 3.33048 5.68252 2.88042 5.68252 2.34034V2.0703C5.68252 0.90013 6.58265 0 7.75281 0H10.0932C10.6332 0 11.1733 0.180026 11.5334 0.630091C11.8934 0.990143 12.1635 1.62023 12.1635 2.16031V2.43035C12.1635 2.97043 12.3435 3.42049 12.7935 3.69053L12.8836 3.78054C13.3336 4.05058 13.7837 4.1406 14.3238 4.05058L14.5938 3.96057C15.674 3.60052 16.8441 4.1406 17.2042 5.22075V5.31077L17.9243 7.56109C18.2843 8.64125 17.6542 9.81141 16.5741 10.1715L16.3941 10.2615C15.854 10.4415 15.4039 10.8916 15.3139 11.4316C15.1339 11.9717 15.2239 12.5118 15.5839 12.8719L15.854 13.2319C16.4841 14.132 16.304 15.4822 15.4039 16.1123L13.6037 17.5525C12.7035 18.2726 11.4433 18.0926 10.8133 17.1925L10.7232 17.1025L10.6332 16.9224C10.3632 16.4724 9.82311 16.2023 9.28304 16.2023C8.74296 16.2023 8.29289 16.4724 8.02285 16.9224L7.6628 17.1025C7.39276 17.5525 6.85268 17.9126 6.31261 18.0026C6.22259 18.0026 6.04257 18.0026 5.95255 18.0026ZM2.17201 8.64125C3.16215 9.0013 3.97227 9.81141 4.33232 10.8916V10.9816C4.69237 12.0617 4.60236 13.3219 3.88226 14.222C3.79224 14.3121 3.79224 14.5821 3.88226 14.6721L5.86254 16.2023C5.95255 16.2923 6.13258 16.2923 6.22259 16.2023L6.40262 15.9323C7.48278 14.4021 9.55307 14.042 11.0833 15.0322C11.4433 15.3022 11.7134 15.5722 11.9834 15.9323L12.0734 16.1123C12.0734 16.2023 12.1635 16.2023 12.2535 16.2023C12.3435 16.2023 12.3435 16.2023 12.4335 16.2023L14.3238 14.7621C14.4138 14.6721 14.5038 14.4921 14.4138 14.3121L14.1437 13.952C13.5136 13.0519 13.3336 11.8817 13.6937 10.8916C14.0537 9.81141 14.8638 8.91129 15.944 8.55123L16.124 8.46122C16.304 8.37121 16.3941 8.19118 16.304 8.10117L15.5839 5.85084C15.5839 5.76083 15.4939 5.67082 15.4039 5.67082C15.3139 5.67082 15.3139 5.67082 15.2239 5.67082L14.9539 5.76083C13.7837 6.03087 12.6135 5.85084 11.7134 5.13074V5.04073C10.9033 4.41064 10.3632 3.42049 10.3632 2.34034V2.0703C10.3632 1.98029 10.3632 1.89027 10.2732 1.80026C10.2732 1.80026 10.1832 1.80026 10.0932 1.80026H7.84283C7.6628 1.80026 7.57279 1.98029 7.57279 2.0703V2.34034C7.57279 3.42049 7.03271 4.50065 6.22259 5.13074L6.04257 5.22075C5.14244 5.94086 3.88226 6.12088 2.8021 5.76083H2.71209C2.62207 5.76083 2.62207 5.85084 2.62207 5.85084L1.81196 8.19118C1.72194 8.37121 1.81196 8.55123 1.99198 8.55123L2.17201 8.64125Z" fill="#43CB80" />
    <path d="M9.01276 12.1517C7.30251 12.1517 5.8623 10.7115 5.8623 9.00128C5.8623 7.29104 7.30251 5.85083 9.01276 5.85083C10.723 5.85083 12.1632 7.29104 12.1632 9.00128C12.1632 10.7115 10.723 12.1517 9.01276 12.1517ZM9.01276 7.65109C8.29266 7.65109 7.66256 8.28118 7.66256 9.00128C7.66256 9.72139 8.29266 10.3515 9.01276 10.3515C9.73286 10.3515 10.363 9.72139 10.363 9.00128C10.363 8.28118 9.73286 7.65109 9.01276 7.65109Z" fill="#43CB80" />
</svg>