<svg width="28" height="28" viewBox="0 0 28 28" fill="none" xmlns="http://www.w3.org/2000/svg">
<circle cx="14" cy="14" r="14" fill="#DC4E41"/>
<path d="M13.6263 12.9833V15.5833C13.6263 15.5833 16.1663 15.5833 17.1603 15.5833C16.6081 17.2083 15.7246 18.1833 13.6263 18.1833C11.4175 18.1833 9.76094 16.45 9.76094 14.3917C9.76094 12.225 11.4175 10.6 13.6263 10.6C14.7306 10.6 15.5037 11.0333 16.1663 11.575C16.7185 11.0333 16.6081 10.925 18.0438 9.73333C16.829 8.65 15.2828 8 13.6263 8C9.98182 8 7 10.925 7 14.5C7 18.075 9.98182 21 13.6263 21C19.0377 21 20.363 16.3417 19.9212 13.3083H13.6263V12.9833Z" fill="white"/>
</svg>
