<svg viewBox="0 0 18 20" fill="none" xmlns="http://www.w3.org/2000/svg">
    <path d="M17.7 14.7L15.3 12.3C14.9 11.9 14.3 11.9 13.9 12.3L10.3 15.9C10.1 16.1 10 16.3 10 16.6V19C10 19.6 10.4 20 11 20H13.4C13.7 20 13.9 19.9 14.1 19.7L17.7 16.1C18.1 15.7 18.1 15.1 17.7 14.7ZM13 18H12V17L14.6 14.4L15.6 15.4L13 18ZM7 18H3C2.4 18 2 17.6 2 17V3C2 2.4 2.4 2 3 2H8V5C8 6.7 9.3 8 11 8H14V9C14 9.6 14.4 10 15 10C15.6 10 16 9.6 16 9V7C16 7 16 7 16 6.9C16 6.8 16 6.7 15.9 6.6C15.9 6.5 15.8 6.4 15.7 6.3L9.7 0.3C9.7 0.2 9.6 0.2 9.5 0.1H9.4L9.1 0H3C1.3 0 0 1.3 0 3V17C0 18.7 1.3 20 3 20H7C7.6 20 8 19.6 8 19C8 18.4 7.6 18 7 18ZM10 3.4L12.6 6H11C10.4 6 10 5.6 10 5V3.4ZM5 12H11C11.6 12 12 11.6 12 11C12 10.4 11.6 10 11 10H5C4.4 10 4 10.4 4 11C4 11.6 4.4 12 5 12ZM5 8H6C6.6 8 7 7.6 7 7C7 6.4 6.6 6 6 6H5C4.4 6 4 6.4 4 7C4 7.6 4.4 8 5 8ZM7 14H5C4.4 14 4 14.4 4 15C4 15.6 4.4 16 5 16H7C7.6 16 8 15.6 8 15C8 14.4 7.6 14 7 14Z" fill="white" />
</svg>