<svg width="16" height="16" viewBox="0 0 16 16" fill="none" xmlns="http://www.w3.org/2000/svg">
<path fill-rule="evenodd" clip-rule="evenodd" d="M16 16H3.73333V13.8667H0V6.93333H3.73333V0H13.3333L16 2.66667V16ZM11.7333 1.06667H4.8V6.93333H13.3333V13.8667H4.8V14.9333H14.9333V4.26667H11.7333V1.06667ZM12.2667 8H1.06667V12.8H12.2667V8ZM12.8 1.06667V3.2H14.9333L12.8 1.06667Z" fill="#43CB80"/>
<path d="M2.5752 9.08188V11.8995H3.48085V11.128H3.91691C4.58777 11.128 4.99029 10.6919 4.99029 10.0882C4.99029 9.51794 4.55423 9.04834 3.91691 9.04834C3.88337 9.08188 2.5752 9.08188 2.5752 9.08188ZM3.84983 9.88691C3.984 9.88691 4.08463 9.98754 4.08463 10.1217C4.08463 10.2559 3.984 10.3565 3.84983 10.3565H3.48085V9.92046H3.84983V9.88691Z" fill="#43CB80"/>
<path d="M5.39258 9.08179V11.8994H6.53304C7.40515 11.8994 8.07601 11.2621 8.07601 10.4906C8.07601 9.7191 7.4387 9.08179 6.53304 9.08179H5.39258ZM6.53304 9.88682C6.90201 9.88682 7.17035 10.1552 7.17035 10.4906C7.17035 10.826 6.90201 11.0944 6.53304 11.0944H6.29824V9.88682H6.53304Z" fill="#43CB80"/>
<path d="M8.51221 9.08179V11.8994H9.41787V11.0273H10.4577V10.2558H9.41787V9.88682H10.7596V9.11533C10.7596 9.08179 8.51221 9.08179 8.51221 9.08179Z" fill="#43CB80"/>
</svg>
