<svg viewBox="0 0 8 9" fill="none" xmlns="http://www.w3.org/2000/svg">
    <path d="M7.87293 1.12696C7.6175 0.446366 7.02413 0 6.24999 0C5.90026 0.00441947 5.49943 0.185618 5.17327 0.552433C3.65251 2.26277 2.13174 3.9731 0.610975 5.68343C0.524523 5.78066 0.473438 5.89557 0.44986 6.02815C0.304464 6.78388 0.159068 7.54845 0.0136714 8.3086C-0.0688508 8.73287 0.233731 9.07759 0.610975 8.98478C1.2908 8.81684 1.97456 8.65774 2.65438 8.4898C2.76441 8.46328 2.86265 8.40583 2.94517 8.31302C4.46594 6.60268 5.98671 4.89235 7.50747 3.18202C7.98689 2.64284 8.13228 1.82524 7.87293 1.12696ZM5.60553 3.80958C4.90213 4.59625 4.20266 5.38291 3.50318 6.16958C3.14952 6.56733 2.79585 6.96508 2.44611 7.36283C2.38717 7.43354 2.32036 7.47774 2.23784 7.49984C1.8606 7.58822 1.48335 7.67661 1.09432 7.76942C1.17291 7.34074 1.25543 6.93414 1.32617 6.52755C1.34582 6.41265 1.38904 6.31984 1.4637 6.23145C2.50899 5.06029 3.55034 3.88913 4.59169 2.71355C4.62313 2.6782 4.6467 2.63842 4.68207 2.59423C5.00037 2.9522 5.29902 3.30134 5.60946 3.63722C5.68413 3.71235 5.66448 3.74329 5.60553 3.80958ZM6.85123 2.40419C6.70976 2.57213 6.56043 2.73123 6.41897 2.89917C6.37181 2.95662 6.34037 2.95662 6.28929 2.89917C6.00243 2.57213 5.71163 2.24509 5.41691 1.91805C5.37368 1.86943 5.36583 1.8385 5.41298 1.78546C5.58196 1.60427 5.74307 1.40981 5.91597 1.23303C6.04172 1.10929 6.19891 1.07393 6.36788 1.07835C6.65867 1.08719 6.87873 1.23303 6.98876 1.53797C7.10665 1.85176 7.06735 2.14786 6.85123 2.40419Z" fill="#43CB80" />
</svg>