<svg width="18" height="16" viewBox="0 0 18 16" fill="none" xmlns="http://www.w3.org/2000/svg">
<path d="M11 6.33325H14.3333" stroke="#43CB80" stroke-width="1.5" stroke-linecap="round" stroke-linejoin="round"/>
<path d="M11 9H14.3333" stroke="#43CB80" stroke-width="1.5" stroke-linecap="round" stroke-linejoin="round"/>
<path d="M6.0083 9C7.11287 9 8.0083 8.10457 8.0083 7C8.0083 5.89543 7.11287 5 6.0083 5C4.90373 5 4.0083 5.89543 4.0083 7C4.0083 8.10457 4.90373 9 6.0083 9Z" stroke="#43CB80" stroke-width="1.5" stroke-linecap="round" stroke-linejoin="round"/>
<path d="M3.42505 11.0001C3.79172 9.57511 5.25005 8.71678 6.67505 9.08344C7.61672 9.32511 8.35005 10.0584 8.59172 11.0001" stroke="#43CB80" stroke-width="1.5" stroke-linecap="round" stroke-linejoin="round"/>
<path d="M1.66667 1H16.3333C16.7 1 17 1.3 17 1.66667V13.6667C17 14.0333 16.7 14.3333 16.3333 14.3333H1.66667C1.3 14.3333 1 14.0333 1 13.6667V1.66667C1 1.3 1.3 1 1.66667 1Z" stroke="#43CB80" stroke-width="1.5" stroke-linecap="round" stroke-linejoin="round"/>
</svg>
