<svg viewBox="0 0 20 20" fill="none" xmlns="http://www.w3.org/2000/svg">
    <circle cx="9.5" cy="9.5" r="8.5" fill="white" stroke="#43CB80" stroke-width="2" />
    <path
        d="M12.6663 7.69495C12.6663 5.93917 11.181 4.5238 9.33847 4.5238C8.15398 4.5238 7.04469 5.13295 6.46184 6.10042C6.19862 6.5304 6.34903 7.0858 6.81907 7.33663C7.27031 7.58745 7.85315 7.44412 8.11637 7.01414C8.3796 6.60207 8.84963 6.33333 9.35728 6.33333C10.1469 6.33333 10.7862 6.94247 10.7862 7.69495C10.7862 8.44742 10.1469 9.05657 9.35728 9.05657C9.30087 9.05657 9.24447 9.07449 9.16926 9.0924C9.11286 9.0924 9.03765 9.11032 8.98124 9.12824C8.92484 9.16407 8.88724 9.18198 8.83083 9.21782C8.77443 9.25365 8.71802 9.27156 8.68042 9.32531C8.64282 9.37906 8.60521 9.43281 8.56761 9.48656C8.53001 9.52239 8.51121 9.57614 8.4736 9.61197C8.4548 9.66572 8.436 9.73738 8.436 9.80905C8.3984 9.84488 8.3984 9.89863 8.3796 9.95237V10.8661V10.884V11.3319C8.3796 11.8336 8.81203 12.2277 9.33847 12.2277C9.86492 12.2277 10.2785 11.8156 10.2785 11.314V10.7228C11.6887 10.3107 12.6663 9.0924 12.6663 7.69495ZM8.66162 13.8402C8.28559 14.1985 8.28559 14.7718 8.66162 15.1122C8.83083 15.2914 9.07525 15.3809 9.33847 15.3809C9.58289 15.3809 9.82731 15.2914 10.0153 15.1122C10.3914 14.7539 10.3914 14.1806 10.0153 13.8222C9.6393 13.4998 9.05645 13.4998 8.66162 13.8402Z"
        fill="#43CB80" />
</svg>