<svg width="17" height="17" viewBox="0 0 17 17" fill="none" xmlns="http://www.w3.org/2000/svg">
<path d="M7.51523 8.49716C7.48684 8.8801 7.77073 9.48995 8.3385 9.71688C8.49464 9.77361 8.60819 9.87289 8.77853 9.9438C9.72955 10.3551 10.3967 10.7948 11.4613 9.95799C12.7104 8.95101 14.7118 9.37649 15.8757 10.5395C17.0964 11.745 17.3519 13.603 16.5003 15.1063C15.6912 16.553 13.9453 17.2905 12.2987 16.8934C10.709 16.5104 9.41727 15.0496 9.47405 13.4186C9.50244 12.5392 9.17597 12.1705 8.43786 11.8727C8.32431 11.8301 8.22495 11.7734 8.12558 11.7166C7.20295 11.2486 6.5784 11.0217 5.58479 11.7308C4.06599 12.8229 1.90845 12.2698 0.787094 10.7806C-0.376845 9.27721 -0.234901 7.1498 1.11356 5.81662C2.47622 4.46926 4.57699 4.31325 6.0816 5.54715C6.5642 5.94427 6.84809 5.85917 7.35909 5.64643C7.47264 5.5897 7.5862 5.54715 7.67136 5.49042C8.62239 4.90892 9.55922 4.66782 9.54502 3.15026C9.53083 1.46251 11.1632 0.171882 12.8665 0.0158717C14.584 -0.140139 16.1738 0.866837 16.77 2.46949C17.3519 4.04378 16.7983 5.84499 15.4357 6.8236C14.0304 7.84476 12.1852 7.80221 10.8509 6.66759C10.4535 6.3272 10.1696 6.29883 9.74374 6.55412C9.27533 6.83778 8.77853 7.0647 8.29592 7.29163C7.75653 7.53273 7.50103 8.4688 7.51523 8.49716ZM15.095 3.80267C15.1092 2.76733 14.2717 1.90218 13.2356 1.888C12.1852 1.87381 11.3477 2.69641 11.3193 3.74594C11.3051 4.79546 12.1284 5.64643 13.1788 5.66061C14.215 5.67479 15.0808 4.83801 15.095 3.80267ZM3.73952 6.62504C2.68914 6.63922 1.88006 7.49019 1.89425 8.53971C1.90845 9.57505 2.77431 10.4118 3.81049 10.3835C4.83249 10.3693 5.69835 9.47577 5.66996 8.45461C5.64157 7.44764 4.77571 6.61086 3.73952 6.62504ZM13.2214 11.3479C12.1852 11.3337 11.3335 12.1705 11.3193 13.22C11.3051 14.2554 12.1568 15.1205 13.193 15.1205C14.2292 15.1347 15.095 14.2837 15.095 13.2484C15.095 12.213 14.2576 11.3621 13.2214 11.3479Z" fill="#43CB80"/>
</svg>
