<svg width="17" height="17" viewBox="0 0 17 17" fill="none" xmlns="http://www.w3.org/2000/svg">
<path d="M16.2 9.6C16.2 9.3 16.3 8.9 16.3 8.5C16.3 4.2 12.8 0.6 8.5 0.6C8.1 0.6 7.7 0.6 7.2 0.7C6.5 0.3 5.6 0 4.6 0C2.1 0 0 2.1 0 4.7C0 5.6 0.3 6.5 0.7 7.3C0.7 7.7 0.7 8.1 0.7 8.5C0.7 12.8 4.2 16.4 8.5 16.4C9 16.4 9.5 16.4 9.9 16.3C10.6 16.7 11.5 17 12.4 17C15 17 17 14.9 17 12.3C17 11.3 16.7 10.4 16.2 9.6ZM9.2 14.6C6.7 14.7 5.6 14.2 4.5 13.2C3.3 12.1 3.8 10.8 4.8 10.7C5.8 10.6 6.3 11.8 6.9 12.1C7.4 12.4 9.4 13.2 10.4 12C11.5 10.7 9.6 10 8.3 9.8C6.3 9.5 3.9 8.4 4 6.3C4.1 4.1 5.7 3 7.4 2.9C9.5 2.7 10.9 3.2 12 4.2C13.3 5.3 12.6 6.5 11.8 6.6C10.9 6.7 10 4.8 8.3 4.7C6.5 4.7 5.2 6.6 7.5 7.2C9.7 7.8 12.1 8 13 10.1C13.9 12.2 11.7 14.5 9.2 14.6Z" fill="#00AFF0"/>
</svg>
