<svg width="21" height="19" viewBox="0 0 21 19" fill="none" xmlns="http://www.w3.org/2000/svg">
<path d="M6.08361 6.47241C5.8575 6.47241 5.63139 6.38762 5.46181 6.21097C5.12264 5.8718 5.12971 5.32066 5.46887 4.98149L10.5422 0L15.5308 4.98856C15.8699 5.32772 15.8699 5.87887 15.5308 6.21803C15.1916 6.5572 14.6405 6.5572 14.3013 6.21803L10.5281 2.44482L6.68422 6.21803C6.5217 6.38762 6.30266 6.47241 6.08361 6.47241Z" fill="#43CB80"/>
<path d="M10.4997 13.3829C10.0192 13.3829 9.63062 12.9943 9.63062 12.5138V1.22238C9.63062 0.741898 10.0192 0.353271 10.4997 0.353271C10.9802 0.353271 11.3688 0.741898 11.3688 1.22238V12.5138C11.3688 12.9943 10.9802 13.3829 10.4997 13.3829Z" fill="#43CB80"/>
<path d="M18.7177 18.746H2.15511C0.968032 18.746 0 17.7779 0 16.5909V10.5777C0 10.0972 0.388624 9.70862 0.869109 9.70862C1.34959 9.70862 1.73822 10.0972 1.73822 10.5777V16.5909C1.73822 16.817 1.92193 17.0077 2.15511 17.0077H18.7177C19.0145 17.0077 19.2618 16.7604 19.2618 16.4637V10.5777C19.2618 10.0972 19.6504 9.70862 20.1309 9.70862C20.6114 9.70862 21 10.0972 21 10.5777V16.4637C21 17.7214 19.9754 18.746 18.7177 18.746Z" fill="#43CB80"/>
</svg>
