<svg width="22" height="17" viewBox="0 0 22 17" fill="none" xmlns="http://www.w3.org/2000/svg">
    <rect width="22" height="17" fill="white" />
    <path
        d="M14.3 8.7C15.4 7.8 16 6.4 16 5C16 2.2 13.8 0 11 0C8.2 0 6 2.2 6 5C6 6.4 6.6 7.8 7.7 8.7C4.8 10 3 12.9 3 16C3 16.6 3.4 17 4 17C4.6 17 5 16.6 5 16C5 12.7 7.7 10 11 10C14.3 10 17 12.7 17 16C17 16.6 17.4 17 18 17C18.6 17 19 16.6 19 16C19 12.9 17.2 10 14.3 8.7ZM11 8C9.3 8 8 6.7 8 5C8 3.3 9.3 2 11 2C12.7 2 14 3.3 14 5C14 6.7 12.7 8 11 8Z"
        fill="#43CB80" />
</svg>